<?xml version="1.0" encoding="UTF-8" standalone="no"?>
<!-- Created with Inkscape (http://www.inkscape.org/) -->

<svg
   width="293.95312mm"
   height="90.809731mm"
   viewBox="0 0 293.95312 90.809731"
   version="1.1"
   id="svg2730"
   inkscape:version="1.2.2 (b0a8486541, 2022-12-01)"
   sodipodi:docname="modes.svg"
   xmlns:inkscape="http://www.inkscape.org/namespaces/inkscape"
   xmlns:sodipodi="http://sodipodi.sourceforge.net/DTD/sodipodi-0.dtd"
   xmlns="http://www.w3.org/2000/svg"
   xmlns:svg="http://www.w3.org/2000/svg">
  <sodipodi:namedview
     id="namedview2732"
     pagecolor="#ffffff"
     bordercolor="#666666"
     borderopacity="1.0"
     inkscape:showpageshadow="2"
     inkscape:pageopacity="0.0"
     inkscape:pagecheckerboard="0"
     inkscape:deskcolor="#d1d1d1"
     inkscape:document-units="mm"
     showgrid="false"
     inkscape:zoom="0.84096521"
     inkscape:cx="310.95222"
     inkscape:cy="222.36354"
     inkscape:window-width="2560"
     inkscape:window-height="1367"
     inkscape:window-x="0"
     inkscape:window-y="240"
     inkscape:window-maximized="1"
     inkscape:current-layer="layer1" />
  <defs
     id="defs2727">
    <filter
       style="color-interpolation-filters:sRGB"
       inkscape:label="Drop Shadow"
       id="filter178688"
       x="-0.001910487"
       y="-0.005436535"
       width="1.0078126"
       height="1.0211992">
      <feFlood
         flood-opacity="0.498039"
         flood-color="rgb(0,0,0)"
         result="flood"
         id="feFlood178678" />
      <feComposite
         in="flood"
         in2="SourceGraphic"
         operator="in"
         result="composite1"
         id="feComposite178680" />
      <feGaussianBlur
         in="composite1"
         stdDeviation="0.5"
         result="blur"
         id="feGaussianBlur178682" />
      <feOffset
         dx="3.3"
         dy="3"
         result="offset"
         id="feOffset178684" />
      <feComposite
         in="SourceGraphic"
         in2="offset"
         operator="over"
         result="composite2"
         id="feComposite178686" />
    </filter>
    <filter
       id="d"
       x="-0.072567617"
       y="-0.090017428"
       width="1.1583131"
       height="1.1973175">
      <feGaussianBlur
         in="SourceAlpha"
         result="blur"
         stdDeviation="10"
         id="feGaussianBlur17815" />
      <feColorMatrix
         result="bluralpha"
         values="1 0 0 0 0 0 1 0 0 0 0 0 1 0 0 0 0 0 0.5 0"
         id="feColorMatrix17817" />
      <feOffset
         dx="5"
         dy="5"
         in="bluralpha"
         result="offsetBlur"
         id="feOffset17819" />
      <feMerge
         id="feMerge17825">
        <feMergeNode
           in="offsetBlur"
           id="feMergeNode17821" />
        <feMergeNode
           in="SourceGraphic"
           id="feMergeNode17823" />
      </feMerge>
    </filter>
    <filter
       id="filter3158"
       x="-0.072567619"
       y="-0.09001743"
       width="1.1583132"
       height="1.1973175">
      <feGaussianBlur
         in="SourceAlpha"
         result="blur"
         stdDeviation="10"
         id="feGaussianBlur3146" />
      <feColorMatrix
         result="bluralpha"
         values="1 0 0 0 0 0 1 0 0 0 0 0 1 0 0 0 0 0 0.5 0"
         id="feColorMatrix3148" />
      <feOffset
         dx="5"
         dy="5"
         in="bluralpha"
         result="offsetBlur"
         id="feOffset3150" />
      <feMerge
         id="feMerge3156">
        <feMergeNode
           in="offsetBlur"
           id="feMergeNode3152" />
        <feMergeNode
           in="SourceGraphic"
           id="feMergeNode3154" />
      </feMerge>
    </filter>
  </defs>
  <g
     inkscape:label="Layer 1"
     inkscape:groupmode="layer"
     id="layer1"
     transform="translate(0.01650329,-85.848934)">
    <g
       id="g4653">
      <rect
         style="font-variation-settings:normal;vector-effect:none;fill:#f9f9f9;fill-opacity:1;stroke:#1a1a1a;stroke-width:0.758886;stroke-linecap:butt;stroke-linejoin:miter;stroke-miterlimit:4;stroke-dasharray:none;stroke-dashoffset:0;stroke-opacity:1;-inkscape-stroke:none;filter:url(#filter178688);stop-color:#000000"
         id="rect20520"
         width="826.72272"
         height="290.52383"
         x="887.85565"
         y="-584.32495"
         transform="matrix(0.352808,0,0,0.30608365,-312.70184,265.18469)"
         ry="5.0701203" />
      <g
         id="g18233"
         transform="matrix(0.45718298,0,0,-0.45718298,-1344.0904,812.02588)"
         style="fill:#e6e6e6">
        <path
           transform="matrix(0.16279683,-0.16279683,-0.16279683,-0.16279683,3253.4473,1568.3399)"
           d="m 364.44,158.62 -62.125,62.344 85.406,-0.125 c -0.0421,52.221 -42.4,94.525 -94.625,94.5 -31.284,-0.0151 -59.014,-15.215 -76.219,-38.625 l -2.8633,-3.5691 -57.23,55.007 c 31.771,40.281 81,66.161 136.28,66.188 95.861,0.0462 173.61,-77.639 173.66,-173.5 2e-5,-0.0416 10e-6,-0.0834 0,-0.125 l 70.531,-0.125 -108.28,-107.91 -8.5631,-7.6483 z"
           fill="url(#c)"
           id="path17837"
           style="fill:#e6e6e6;stroke:#1a1a1a;stroke-width:3;stroke-linecap:round;filter:url(#d)" />
        <path
           d="m 207.85,447.55 62.125,-62.344 -85.406,0.125 c 0.0421,-52.221 42.4,-94.525 94.625,-94.5 31.284,0.0151 59.014,15.215 76.219,38.625 l 2.7008,3.8214 57.582,-55.133 c -31.771,-40.281 -81.189,-66.287 -136.47,-66.314 -95.861,-0.0462 -173.61,77.639 -173.66,173.5 -2e-5,0.0416 -10e-6,0.0834 0,0.125 l -70.531,0.125 108.28,107.91 8.5631,7.6483 z"
           fill="url(#b)"
           id="path17839"
           style="fill:#e6e6e6;stroke:#1a1a1a;stroke-width:3;stroke-linecap:round;filter:url(#d)"
           transform="matrix(0.16279683,-0.16279683,-0.16279683,-0.16279683,3282.3479,1603.2539)" />
      </g>
      <g
         fill-rule="evenodd"
         stroke-width="0.312"
         id="g14667"
         transform="matrix(0.23882321,0,0,0.23882321,51.19052,100.37625)">
        <path
           d="m 16.677,166.58 -8.7094,-3.8708 v -4.8385 l 8.2255,-9.6771 -4.8385,-7.7417 3.387,-8.7094 10.645,-3.8708 12.58,-5.8063 10.645,-7.2578 7.7417,4.3547 0.4839,5.3224 -2.4193,6.2901 -4.3547,-1.4516 0.9677,16.935 6.2901,22.257 h -6.7739 l -3.8708,-14.032 -2.4193,-6.774 -0.9677,-9.6771 -2.9031,9.6771 4.3547,5.3224 1.4516,6.774 -5.8062,4.8385 -2.4193,-1.9354 0.9677,-7.7417 -4.8386,-9.6771 -6.2901,2.9031 v 15.967 l 6.774,5.8063 v 1.9354 H 22.484 l -1.9354,-3.387 v -10.645 l -0.9677,-2.9031 h -2.4193 l -3.387,6.2901 4.3547,1.4516 -1.4516,3.8708 z"
           id="path14627" />
        <path
           d="m 44.374,128.35 -1.0851,9.6771 -2.9031,9.6771 4.3547,5.3224 1.4516,6.774 -5.8062,4.8385 -2.4193,-1.9354 0.9677,-7.7417 -4.8386,-10.161 1.4759,-12.294 c 1.9077,-6.1757 5.5262,-8.2457 8.8025,-4.1572 z"
           id="path14629" />
        <path
           d="m 16.194,148.19 -4.4893,-8.2255 3.0377,-8.2255 c 8.8025,0.35162 7.3408,13.02 13.064,16.451 v 15.967 l 6.774,5.8063 v 1.9354 h -12.096 l -1.9354,-3.387 v -10.645 l -0.9677,-2.9031 -3.387,-6.774 z"
           id="path14631" />
        <path
           d="m 48.612,114.8 c 4.516,-1.4516 6.8546,1.6935 7.7417,4.3547 3.2257,6.2901 0.16129,8.4674 -1.9354,11.612 l -4.3547,-1.4516 -3.4629,-7.2578 -2.8652,-3.6289 4.8765,-3.6289 z"
           id="path14633" />
        <path
           d="m 66.529,170.9 6.774,3.8708 h 10.645 l -1.9354,-4.3547 -4.3547,0.4839 -3.387,-3.387 v -7.7417 l 6.2901,-5.8063 3.387,-13.548 h 3.8708 v 12.096 l 0.9677,4.3547 1.9354,5.8063 -1.4516,11.129 h 15.967 l 4.8386,-2.4193 -10.161,-4.3547 -2.4193,-32.902 -4.8385,-15 1.9354,-4.3547 v -35.805 l 6.532,-0.9677 1.2096,-3.387 c -1.6935,-7.5804 -3.387,-10.322 -10.161,-14.032 h -7.7417 c -1.2903,1.4516 -1.8548,4.1128 -0.9677,7.9836 l -1.9354,6.532 -6.774,6.2901 -1.9354,38.224 2.4193,4.8386 -0.4839,16.451 -6.2901,10.645 -1.9354,19.354 z"
           id="path14635" />
        <path
           d="m 86.851,134.61 -4.3547,-9.6771 v -9.1932 c -2.9031,-13.709 2.9031,-24.999 -1.9354,-38.224 l -5.8063,3.8708 0.4839,34.354 3.387,8.7094 -0.4839,9.6771 8.7094,0.4839 z"
           id="path14637" />
        <path
           d="m 86.851,140.41 0.9677,12.096 0.9677,4.3547 1.9354,5.8063 -1.4516,11.129 h 15.967 l 4.8386,-2.4193 -10.161,-4.3547 -2.4193,-32.902 -9.6771,-17.903 -6.2901,-4.8386 -7.7417,4.8385 1.4516,8.2255 11.612,15.967 z"
           id="path14639" />
        <path
           d="m 94.592,78.963 6.532,-0.9677 1.2096,-3.387 c -1.6935,-7.5804 -3.387,-10.322 -10.161,-14.032 h -7.7417 c -1.2903,1.4516 -1.8548,4.1128 -0.9677,7.9836 1.6567,4.8362 5.0242,8.988 11.129,10.403 z"
           id="path14641" />
        <path
           d="m 152.17,114.28 1.4516,-18.87 3.8708,-9.1932 -1.9354,-17.419 -3.8708,-6.2901 2.4193,-4.8385 6.774,0.4838 2.9031,-3.8708 -2.395,-6.4561 -1.9597,-3.7291 -3.387,-5.7819 -11.612,1.4516 -5.0046,6.031 -0.8847,12.556 -4.2717,5.6058 -6.774,20.806 0.4839,15.483 2.4193,17.903 -0.5669,11.353 8.3085,3.1623 -1.4516,7.7417 -10.645,20.806 -5.3224,10.645 14.032,6.2901 7.7417,0.4839 -0.4838,-3.8708 -8.2255,-6.774 13.064,-22.257 0.9677,-9.6771 6.2901,2.4193 v 16.935 l 11.612,19.354 -0.9677,2.4193 18.386,-0.9677 -1.4516,-1.9354 -11.612,-5.3224 -8.2255,-34.838 -9.6771,-19.838 z"
           id="path14643" />
        <path
           d="m 152.17,117.36 c -3.4943,-6.6929 -9.0415,-8.938 -15.615,-7.7618 -1.5251,5.6369 -0.99733,15.379 5.3467,20.332 l 5.9136,6.1241 6.2901,2.4193 v 16.935 l 11.612,19.354 -0.9677,2.4193 18.386,-0.9677 -1.4516,-1.9354 -11.612,-5.3224 -8.2255,-34.838 -9.6771,-16.759 z"
           id="path14645" />
        <path
           d="m 134.72,113.26 c 1.0541,-11.08 3.8188,-17.712 2.1358,-28.108 l 8.6608,-16.036 c -0.61549,-5.9804 -3.2838,-9.2237 -6.9786,-10.756 l -4.2717,5.6058 -6.774,20.806 0.4839,15.483 2.4193,17.903 -0.5669,11.353 7.9664,1.1094 1.1195,-5.735 -4.1945,-11.625 z"
           id="path14647" />
        <path
           d="m 154.11,57.674 c 3.2257,1.266 7.4778,-0.54731 9.6771,-3.387 0.8408,-8.4016 -2.7662,-11.671 -7.7417,-15.967 l -11.612,1.4516 -5.0046,6.031 -0.8847,12.556 c 4.5045,2.509 10.378,2.9652 15.566,-0.68426 z"
           id="path14649" />
        <path
           d="m 201.99,171.35 c -1.8334,-2.404 -2.6404,-6.1766 -1.7367,-10.291 l 5.7109,-6.9741 5.7109,-1.1578 2.2896,14.923 -2.8425,5.0007 0.921,3.9743 15.291,-0.1313 6.2898,-0.2627 -1.1266,-3.6461 -10.102,-1.4516 3.387,-40.16 0.9677,-10.161 h 7.2578 v -8.2255 l -6.774,-6.2901 -1.4516,-2.4193 0.4838,-7.7417 c -0.9677,-11.774 5.5916,-21.153 -0.50816,-33.611 l -3.8465,-4.6138 v -5.8062 l 7.4826,0.6843 3.4457,-5.3224 c 0.0539,-7.0526 -6.3927,-12.052 -12.839,-15.684 l -9.7014,3.387 -3.8708,3.387 -1.4516,12.096 -7.7417,15 2.9031,14.516 4.3547,7.7417 -1.4516,8.7094 c -4.9903,5.7476 -3.1379,13.548 1.4516,20.322 l 2.9031,15.967 0.3665,6.1241 -9.5941,4.5551 -3.7291,11.187 -6.3974,7.1647 5.2981,13.064 c 6.9892,2.8211 13.294,1.1944 8.6507,-3.8536 z"
           id="path14651" />
        <path
           d="m 201.99,171.35 c -1.8334,-2.404 -2.6404,-6.1766 -1.7367,-10.291 l 5.7109,-6.9741 5.7109,-2.8684 8.9747,-8.4106 c -3.0186,-17.154 0.12134,-45.598 -18.293,-47.355 -4.078,7.5723 -3.0239,15.487 2.1358,21.69 l 2.9031,15.967 0.3665,6.1241 -9.5941,4.5551 -3.7291,11.187 -6.3974,7.1647 5.2981,13.064 c 6.9892,2.8211 13.294,1.1944 8.6507,-3.8536 z"
           id="path14653" />
        <path
           d="m 223.73,114.41 3.0205,6.6038 h 7.2578 v -8.2255 l -6.774,-6.2901 -1.4516,-2.4193 -10.807,-11.163 c -2.9909,-15.047 -5.6396,-29.409 -11.026,-35.218 l -6.7153,8.1568 2.9031,14.516 4.3547,7.7417 4.7069,12.815 14.53,13.483 z"
           id="path14655" />
        <path
           d="m 221.91,52.307 7.4826,0.6843 3.4457,-5.3224 c 0.0539,-7.0526 -6.3927,-12.052 -12.839,-15.684 l -9.7014,3.387 -3.8708,3.387 -1.4516,12.096 16.935,1.4516 z"
           id="path14657" />
        <path
           d="m 272.82,148.49 c 0.16128,7.0965 1.8622,18.128 -0.0294,27.277 -0.80643,1.9354 16.632,1.7398 25.986,1.4172 -0.48386,-1.2903 -0.96771,-3.9491 -1.4516,-5.2394 -4.516,-2.4193 -9.032,-2.1015 -13.548,-4.5207 -0.64514,-1.9354 -1.2903,-5.2394 -1.9354,-7.1748 0,-5.1611 3.4105,-12.71 3.4105,-17.871 3.0644,-2.258 2.7183,-2.1286 5.7827,-4.3866 0.16128,-15 0.3193,-29.657 -2.5889,-44.656 2.4193,6.4514 5.7191,2.7608 10.113,11.979 0.54016,3.575 1.381,6.503 4.3304,8.0008 4.2337,1.3306 5.7428,-1.65 5.4244,-2.8124 -0.88648,-3.2358 -4.0108,-6.3808 -5.0995,-8.0743 -5.32,-5.0633 -6.5344,-12.822 -10.728,-17.177 -0.3226,-26.854 -2.0362,-33.072 -8.7094,-42.579 0.32254,-1.9354 0.64514,-3.8708 0.96768,-5.8062 2.0967,-0.16128 4.1934,-0.32257 6.2901,-0.48385 0.60599,-4.1104 2.3754,-9.3397 -1.4516,-14.516 -0.48386,-2.5806 -3.5334,-12.776 -10.562,-8.7924 -6.1045,0.85031 -6.0506,4.4377 -9.7601,7.3408 -0.16126,3.7096 -0.32257,7.4191 -0.48386,11.129 1.2903,0.96771 2.5806,1.9354 3.8708,2.9031 0.16128,0.96771 0.32257,1.9354 0.48386,2.9031 -2.258,3.5483 -4.516,7.0965 -6.774,10.645 -0.32257,2.7419 -0.64514,5.4837 -0.96771,8.2255 0.8064,8.7094 1.6128,17.419 2.4193,26.128 -0.48389,3.2257 -0.96774,6.4514 -1.4516,9.6771 -0.16128,2.5806 -0.32257,5.1611 -0.48386,7.7417 0.48386,0.9677 0.96771,1.9354 1.4515,2.9031 2.0967,9.3545 3.8513,20.591 5.948,29.945 -7.0965,6.2901 -13.851,10.698 -20.948,16.989 -5.7256,3.7902 -9.8384,3.3063 -7.4997,10.645 0.48383,5.4837 1.2096,10.484 1.6935,15.967 2.9031,1.4516 4.5966,0.48386 5.8063,-1.6935 0.48384,-3.8708 0,-8.7094 0.48384,-12.58 2.0967,-3.2257 3.2257,-3.0644 5.3224,-6.2901 4.1934,-1.4516 10.493,-5.7111 14.687,-7.1627 z"
           id="path14659" />
        <path
           d="m 272.65,149.35 c 3.5827,-3.3386 6.4561,-1.4712 9.1932,-4.5794 l 9.1932,-6.774 c 0.16128,-15 -3.684,-41.416 -13.317,-49.997 -3.221,-0.70888 -10.876,0.80505 -11.36,4.0308 -0.16128,2.5806 -0.32257,5.1611 -0.48386,7.7417 0.48386,0.9677 0.96771,1.9354 1.4515,2.9031 2.0967,9.3545 5.2198,21.446 10.054,27.892 -8.6362,3.382 -17.957,12.751 -25.053,19.041 -5.7256,3.7902 -9.8384,3.3063 -7.4997,10.645 0.48383,5.4837 1.2096,10.484 1.6935,15.967 2.9031,1.4516 4.5966,0.48386 5.8063,-1.6935 0.48384,-3.8708 0,-8.7094 0.48384,-12.58 2.0967,-3.2257 3.2257,-3.0644 5.3224,-6.2901 4.1934,-1.4516 10.322,-4.8557 14.516,-6.3073 z"
           id="path14661" />
        <path
           d="m 277.01,64.447 c 0.32257,-9.5158 -0.80643,-18.548 -3.387,-22.257 0.3226,-1.9354 -4.9998,2.258 -7.2578,5.8062 -0.32257,2.7419 -0.64514,5.4837 -0.96771,8.2255 0.8064,8.7094 0.64514,21.29 1.4515,29.999 -0.24191,1.6128 3.293,7.813 4.9699,16.061 1.1039,5.43 2.5909,10.174 8.2359,13.884 3.7096,-0.72579 2.2211,-10.881 -1.7039,-17.997 -4.9748,-9.0185 -2.8732,-27.512 -1.341,-33.722 z"
           id="path14663" />
        <path
           d="m 283.78,42.674 c 0.32254,-1.9354 0.64514,-3.8708 0.96768,-5.8062 2.0967,-0.16128 4.1934,-0.32257 6.2901,-0.48385 0.60599,-4.1104 2.3754,-9.3397 -1.4516,-14.516 -0.48386,-2.5806 -3.5334,-12.776 -10.562,-8.7924 -6.1045,0.85031 -6.0506,4.4377 -9.7601,7.3408 -0.16126,3.7096 -0.32257,7.4191 -0.48386,11.129 1.2903,0.96771 2.5806,1.9354 3.8708,2.9031 0.16128,0.96771 0.32257,1.9354 0.48386,2.9031 -2.258,3.5483 13.225,9.032 10.645,5.3224 z"
           id="path14665" />
      </g>
      <text
         xml:space="preserve"
         style="font-style:normal;font-variant:normal;font-weight:800;font-stretch:normal;font-size:11.4635px;line-height:1.25;font-family:Lato;-inkscape-font-specification:'Lato, Ultra-Bold';font-variant-ligatures:normal;font-variant-caps:normal;font-variant-numeric:normal;font-variant-east-asian:normal;text-align:center;text-anchor:middle;stroke:#ffffff;stroke-width:0.238823"
         x="88.682129"
         y="154.57326"
         id="text18088"><tspan
           sodipodi:role="line"
           id="tspan18086"
           style="font-style:normal;font-variant:normal;font-weight:800;font-stretch:normal;font-size:11.4635px;font-family:Lato;-inkscape-font-specification:'Lato, Ultra-Bold';font-variant-ligatures:normal;font-variant-caps:normal;font-variant-numeric:normal;font-variant-east-asian:normal;stroke:#ffffff;stroke-width:0.238823"
           x="88.682129"
           y="154.57326">Darwinian mode</tspan></text>
      <g
         fill-rule="evenodd"
         id="g14872"
         transform="matrix(0.0722669,0,0,0.0722669,185.06401,108.32197)">
        <path
           d="m 606.58,188.24 c 12.834,2.0177 24.296,-11.5 34.142,-12.317 3.3675,3.5305 -1.352,5.3164 -2.2761,8.9578 -2.9236,11.514 -0.6806,30.793 0,47.028 0.53601,12.769 -0.49054,18.24 4.5522,30.232 -2.1874,2.7926 1.7366,4.6009 -1.1381,6.7183 5.9304,13.673 18.238,4.8954 29.589,11.197 4.5124,17.978 -21.116,50.963 -27.313,66.063 -1.352,3.2953 -0.14911,5.7677 -1.1381,7.838 -2.6915,5.6322 -8.9633,10.568 -11.381,16.796 -2.4764,6.3768 -3.5234,11.966 -6.8284,17.916 -3.7545,6.7586 -9.3036,12.76 -12.519,19.035 -1.8937,3.6962 -1.5261,8.8704 -3.4141,12.317 -1.4067,2.5675 -4.6467,3.7947 -5.6903,5.5986 -1.0425,1.8027 0.0876,5.5292 -1.1381,7.838 -4.7321,8.9141 -9.8123,17.683 -14.795,27.993 -6.4392,13.326 -17.836,47.909 -33.004,50.387 -9.1272,1.4914 -16.225,-0.96747 -27.313,-2.2394 -42.205,-4.8394 -99.949,-12.088 -157.05,-17.916 -16.466,-1.6807 -40.602,-7.5883 -54.627,-4.4788 -12.304,2.7288 -22.346,18.932 -36.418,19.035 -15.719,0.11646 -30.773,-7.7831 -40.97,-24.634 -13.479,0.77707 -23.949,0.90585 -36.418,3.3592 -6.0932,1.1981 -15.319,-0.70657 -17.071,0 -1.2792,0.51617 -2.704,4.3792 -3.4142,4.4788 -0.62251,0.0873 -10.133,-6.3835 -15.933,1.1197 -3.6668,-1.4847 -17.808,-1.5474 -20.485,4.4789 -9.1886,-6.5873 -29.877,-3.3368 -34.142,1.1197 -25.653,-1.9853 -42.412,3.1957 -81.94,4.4788 -9.9591,0.32361 -15.202,3.6189 -27.313,-4.4788 0.61796,-3.133 -0.50757,-5.0712 -1.1381,-10.078 13.501,-5.9267 15.678,-29.292 31.866,-31.352 -9.6974,14.179 5.5196,8.2366 18.209,11.197 -7.9049,8.5233 -15.338,1.9461 -21.623,10.078 0.21395,3.1487 3.7135,3.0647 4.5522,5.5986 32.812,-5.9748 54.761,-2.5955 89.906,-6.7183 41.887,-4.9133 76.105,-10.586 117.22,-8.9577 4.9676,5.3523 4.0208,14.163 9.1044,20.155 3.6827,4.3412 13.945,10.529 19.347,11.197 20.921,2.5888 30.237,-11.974 35.28,-26.873 1.3236,0.18137 2.0246,-0.24747 2.2761,-1.1197 11.778,0.49155 18.1,3.0781 26.175,3.3592 3.5098,0.12204 7.8958,-1.0917 13.657,0 6.7931,1.2854 11.964,1.8251 19.347,2.2394 20.443,1.1477 41.798,6.2324 62.593,8.9578 40.218,5.2705 77.967,6.7642 109.25,11.197 -1.6946,-24.103 -4.2268,-43.71 -6.8283,-63.824 -2.102,-16.248 0.82507,-15.897 -13.657,-11.197 -10.966,3.5585 -23.448,3.8362 -31.866,6.7183 -25.515,-3.3133 -53.085,-5.2179 -85.354,-13.437 -8.4956,-2.1644 -15.603,-6.828 -23.899,-7.838 -29.006,-3.5305 -63.972,-5.8841 -88.768,14.556 -4.4544,3.6715 -7.7888,8.5233 -13.657,11.197 -63.187,-49.333 -113.2,-14.299 -205.99,-22.394 -6.6394,-0.58002 -11.119,-0.82858 -20.485,-2.2394 -7.6785,-1.1566 -12.057,-4.2964 -18.209,4.4789 1.4647,3.0378 5.6561,3.3927 10.242,3.3591 0.60089,2.3604 12.925,4.2135 18.209,4.4789 29.9,1.5004 49.165,1.1892 93.32,-2.2394 26.908,-2.0883 60.262,-3.7163 83.078,6.7183 3.734,1.7076 6.7054,3.442 7.9664,7.838 -6.8602,2.2596 -12.997,-4.8293 -21.623,-6.7183 -30.627,-6.7038 -67.274,-2.6168 -99.011,0 -18.718,1.5429 -39.1,0.44116 -55.765,0 -2.3364,-0.0616 -7.3109,0.39523 -10.242,0 -13.006,-1.7524 -23.492,-13.057 -27.313,2.2394 13.165,6.2055 22.601,5.4609 42.108,6.7183 37.538,2.4186 70.904,-5.1328 104.7,-5.5986 14.32,-0.19818 27.749,2.6526 43.246,6.7183 3.891,1.0212 10.788,-1.6908 11.381,5.5986 -41.198,-11.085 -66.138,-2.2696 -122.91,0 -12.004,0.48035 -22.952,0.30011 -34.142,0 -18.79,-0.50162 -34.617,-9.8367 -42.108,4.4789 9.4242,7.1147 21.727,4.4016 33.004,4.4789 24.173,0.16571 47.027,1.4847 71.698,-1.1197 25.484,-2.6907 45.241,-7.4999 67.145,-4.4789 5.5594,5.406 10.748,-0.80396 13.657,6.7183 -65.311,-3.9369 -106.28,11.386 -159.33,6.7183 -16.827,-1.4802 -25.634,-6.6052 -36.418,-10.078 -1.4908,-8.212 8.8768,-8.0911 7.9664,-12.317 -2.2795,-4.1698 -3.4051,-2.553 -9.1044,-3.3592 -3.0284,-5.9132 3.0102,-9.6061 7.9664,-13.437 -1.3258,-3.9213 -5.7244,-4.8192 -7.9664,-7.838 2.0485,-3.2102 4.2745,-6.2447 6.8283,-8.9578 -4.5943,-4.8103 -11.475,-7.3711 -18.209,-10.078 4.1061,-6.2111 12.085,-6.9624 18.209,-11.197 10.156,-7.0229 19.114,-19.717 27.313,-27.993 7.9027,-7.9768 16.884,-13.861 13.657,-22.394 -9.2399,-24.429 -1.3167,-68.596 39.832,-81.739 0.49278,-4.2169 -2.4047,-5.0992 -4.5522,-6.7183 -25.919,7.6062 -45.461,30.304 -47.798,59.345 -3.7783,1.3996 -3.5644,-1.6426 -9.1044,-1.1197 -18.612,-26.442 -37.921,-36.492 -36.418,-79.5 18.481,-41.587 73.101,-67.321 106.98,-63.824 0.88541,-8.4191 -5.4718,-29.821 0,-39.19 -18.93,-19.015 -1.6661,-51.572 14.795,-70.542 1.4453,-1.665 5.8541,-3.096 7.9664,-5.5986 4.7639,-5.6434 20.315,-21.25 29.589,-24.634 2.3148,-0.84427 6.496,-0.38182 7.9664,-1.1197 25.779,-12.948 62.08,-14.509 87.63,-10.078 5.647,0.97975 11.525,1.6236 13.657,2.2394 6.7646,1.9562 18.564,8.4987 20.485,10.078 2.0132,1.6538 0.92523,3.7466 2.2761,5.5986 7.1231,9.7729 18.392,19.742 23.899,31.352 43.588,-15.569 75.576,-48.065 130.88,-51.507 1.014,-0.49604 2.0348,-0.98311 2.2761,-2.2394 19.452,3.1262 47.251,-1.2115 70.559,14.556 3.767,2.5474 6.8101,5.7789 11.381,8.9577 14.878,10.35 27.978,30.91 36.418,47.028 6.5779,12.563 13.009,27.186 15.933,40.31 1.6502,7.4092 7.0344,13.979 7.9664,19.035 0.31067,1.6885 -1.541,3.9369 -1.1381,5.5986 0.9104,3.7443 3.7932,6.8482 4.5522,12.317 2.0349,14.655 1.4579,23.416 4.5522,40.31 z M 293.61,28.12 C 283.7624,21.2684 272.424,16.366 260.606,14.683 223.714,9.4293 192.024,9.3039 163.871,29.239 c -1.3179,2.3424 0.53261,4.2079 -3.4142,5.5986 -2.7416,-0.45796 -2.4741,2.0446 -5.6903,1.1197 -14.784,26.135 -38.984,36.597 -36.418,73.901 12.965,10.758 25.201,22.233 39.832,31.352 -12.162,7.9455 -22.828,-8.044 -33.004,-14.556 -7.106,13.175 -2.0758,28.309 6.8283,45.908 16.141,-20.464 50.58,-11.363 64.869,6.7183 2.8622,-2.7825 9.2604,-2.086 11.381,-5.5986 -5.4593,-21.417 13.222,-41.074 35.28,-36.951 12.389,2.3145 23.165,13.504 29.589,17.916 12.775,-17.221 22.13,-32.354 34.142,-49.268 0.53375,-3.8843 -6.1762,-0.6416 -6.8283,-3.3592 9.8157,-9.1649 21.133,-10.966 23.899,-25.754 -12.318,-15.644 -19.218,-30.859 -30.728,-48.148 z m 39.832,119.81 c 17.968,-6.472 24.473,-22.885 30.728,-41.43 3.4688,-10.284 3.7248,-33.187 -9.1044,-38.07 -21.789,-8.2926 -37.348,26.518 -34.142,42.549 -4.1095,4.7162 -12.349,7.5435 -17.071,13.437 -4.2028,5.2459 -7.6921,14.894 -12.519,22.394 -5.515,8.5692 -12.918,16.526 -13.657,22.394 -0.80118,6.3634 3.3436,12.635 2.2761,19.035 -1.0891,6.5336 -5.7608,8.3889 -5.6903,14.556 -13.926,9.4437 -24.625,14.5 -38.694,8.9577 -12.273,-4.8349 -18.273,-19.419 -30.728,-23.514 -3.6793,7.6488 0.99922,13.063 2.2761,19.035 2.753,12.874 -1.583,22.592 6.8283,34.711 12.482,-6.4473 10.032,-22.208 20.485,-29.113 0.3346,2.2831 3.0796,2.1958 3.4142,4.4789 -1.5534,12.831 -10.11,22.992 -18.209,32.472 22.457,16.725 61.14,20.162 91.044,4.4789 23.33,-22.701 29.139,-61.193 20.485,-98.535 -3.4028,-1.5049 -7.9004,-1.9315 -7.9664,-6.7183 2.1225,-4.7218 5.8348,-2.1555 10.242,-1.1197 z m -110.39,4.4789 c -19.395,23.378 13.461,65.352 42.108,43.669 13.564,-30.396 -23.264,-59.292 -42.108,-43.669 z m -77.388,22.394 c -1.4226,6.3734 -5.4183,8.6106 -5.6903,13.437 -0.0307,0.5509 2.2386,11.1 2.2761,11.197 8.5684,22.099 51.388,28.053 50.074,1.1197 -0.48595,-9.9711 -8.5308,-13.634 -12.519,-22.394 -13.098,-5.3164 -20.199,-6.8079 -34.142,-3.3592 z m 406.29,30.232 c -10.323,-2.843 -23.276,-7.5525 -30.728,0 -14.862,30.876 -36.08,62.269 -67.145,80.62 -7.4816,-5.8046 -1.7264,-10.351 -3.4142,-15.676 -6.8431,-21.58 -44.279,-41.534 -59.179,-29.113 12.368,4.0119 26.702,10.088 36.418,22.394 13.179,16.694 5.9725,29.377 -12.519,42.549 -3.5212,1.0145 -6.2684,2.7903 -9.1045,4.4789 0.99921,14.803 -11.301,25.18 -25.037,29.113 -12.052,-9.6184 -21.705,0.8107 -35.28,-8.9577 -10.768,4.5561 -21.333,-6.294 -22.761,-16.796 -16.578,4.7711 -38.001,44.741 -55.765,34.711 -3.3322,-1.8811 -3.4005,-6.2895 -2.2761,-11.197 4.6933,-20.493 41.335,-56.223 60.317,-61.584 3.2002,-2.3424 -0.18436,-4.209 3.4142,-5.5986 9.8328,-5.2548 20.652,-9.5389 29.589,-15.676 1.17,-12.375 12.958,-17.643 13.657,-30.232 -9.4368,-3.4174 -16.451,-7.1628 -28.451,-6.7183 -8.5354,17.931 -20.757,40.42 -39.832,50.387 -6.1204,3.1979 -13.975,3.2864 -21.623,4.4789 -37.193,5.8035 -75.453,-12.057 -109.25,-40.31 -10.183,0.91928 -14.176,-4.6905 -25.037,-5.5986 -1.7424,13.666 -12.308,21.868 -12.519,33.592 13.922,7.4887 43.163,-0.15006 37.556,21.275 -13.972,18.54 -36.669,17.596 -54.627,4.4789 -14.731,15.906 -25.507,41.913 -44.384,53.746 -13.063,21.112 -35.222,33.276 -48.936,53.746 39.562,15.669 106.83,2.8676 147.95,-1.1197 33.318,3.0535 67.266,3.5641 99.011,25.754 11.116,-26.28 28.499,-51.72 44.384,-82.859 3.7282,-0.95624 5.3762,-8.1717 9.1044,-5.5986 -11.73,31.762 -30.424,53.204 -42.108,82.859 14.211,-8.5233 26.23,-17.358 39.832,-20.155 29.808,-6.1305 57.351,4.6659 92.182,13.437 37.296,9.3922 76.162,16.659 111.53,2.2394 2.0713,-4.7286 3.1228,-6.8404 3.4142,-11.197 2.2374,0.33481 2.2568,-1.5128 3.4141,-2.2394 0.65326,-10.08 7.5283,-15.924 12.519,-25.754 2.9385,-5.7889 2.844,-12.761 5.6903,-19.035 3.0909,-6.8113 9.2274,-12.816 12.519,-20.155 9.8578,-21.981 20.651,-43.407 28.451,-64.944 1.3156,-3.6324 5.2316,-6.4832 6.8283,-10.078 0.66925,-1.5071 -0.57471,-4.125 0,-5.5986 1.5228,-3.9033 5.9669,-6.9344 7.9664,-11.197 7.1504,-15.242 15.399,-34.043 21.623,-47.028 1.7469,-0.26762 0.16614,-1.8431 -1.1381,-2.2394 -21.353,12.327 -52.286,12.572 -76.25,16.796 z m 53.489,45.908 c -5.7198,21.118 -12.871,23.02 -19.347,45.908 -12.008,25.337 -27.927,50.971 -38.694,78.38 -1.0652,2.7098 -0.0399,6.0655 -1.1381,8.9578 -3.2764,8.633 -10.699,16.529 -12.519,23.514 -2.1407,8.2154 0.64642,19.765 4.5522,26.873 6.2832,-21.997 16.706,-32.43 23.899,-54.866 7.7661,-11.493 13.865,-22.908 20.485,-35.831 6.9103,-13.488 11.453,-30.665 21.623,-41.43 -3.3049,12.326 -9.8977,25.422 -15.933,35.831 -1.2336,2.1275 -0.74084,7.2547 -2.2761,11.197 -5.7927,14.884 -18.408,32.027 -26.175,49.268 -8.5115,18.893 -22.378,37.525 -19.347,51.507 20.46,-40.304 42.668,-88.631 68.283,-129.89 3.5177,6.2693 -3.8251,6.0476 -3.4142,14.556 -5.0997,1.0984 -3.1069,6.1484 -4.5522,8.9577 -16.791,32.64 -32.433,60.719 -50.074,98.535 -6.6326,8.3845 -7.8526,12.906 -10.242,25.754 6.2422,-7.2256 10.038,-16.071 14.795,-25.754 8.4786,-17.259 18.259,-31.866 27.313,-49.268 7.1834,-13.804 8.1735,-33.643 21.623,-42.549 -3.9081,11.261 -10.355,21.315 -14.795,31.352 -1.5022,3.3961 -0.74994,7.707 -2.2761,11.197 -10.862,24.85 -29.785,46.635 -37.556,75.021 -3.6566,3.8596 -7.3427,11.082 -4.5522,14.556 7.9118,-7.2535 7.543,-17.421 12.519,-26.873 3.0045,-5.7072 9.5335,-10.01 11.381,-14.556 0.63165,-1.553 -0.78186,-4.1262 0,-5.5986 1.1039,-2.0816 4.938,-3.1419 5.6903,-5.5986 1.9962,-6.5134 2.3398,-9.3821 4.5522,-13.437 3.6293,-6.65 5.7358,-13.101 9.1044,-20.155 13.547,-28.376 25.321,-47.916 42.108,-79.5 4.9505,-9.3127 12.152,-20.704 13.657,-30.232 -16.385,-21.235 -12.305,-64.477 -15.933,-80.62 -9.2706,18.164 -10.776,29.776 -22.761,44.789 z m -421.08,-20.155 c 6.1205,3.1016 13.085,10.787 19.347,10.078 -2.4423,-11.709 1.0277,-17.807 -4.5522,-26.873 -1.2473,9.2242 -11.873,9.2197 -14.795,16.796 z m 182.09,20.155 c 15.808,-7.8548 31.965,-20.439 36.418,-35.831 -19.299,-0.90697 -32.678,22.224 -36.418,35.831 z m 61.455,33.592 c 0.0341,-4.8697 1.1972,-12.05 -1.1381,-14.556 -11.002,-11.81 -28.374,-24.194 -42.108,-21.275 -7.8788,1.6751 -19.635,10.869 -26.175,14.556 -13.271,7.4831 -25.533,13.441 -36.418,21.275 -8.441,6.0745 -16.901,12.26 -21.623,15.676 -6.603,4.7778 -14.738,16.408 -18.209,21.275 1.7116,3.1677 5.0154,4.77 5.6903,8.9577 -3.2662,4.6256 -9.6223,6.21 -12.519,11.197 14.131,-5.556 27.508,-18.872 39.832,-29.113 4.5056,-3.7444 10.562,-9.4975 13.657,-13.437 4.8128,-6.126 7.5681,-19.922 18.209,-14.556 -13.369,9.2029 -23.512,38.851 -3.4142,39.19 -1.4305,-17.462 6.364,-31.802 18.209,-32.472 -9.9568,13.3 -20.896,33.253 1.1381,36.951 0.75568,-11.478 1.2701,-28.198 15.933,-34.711 0.29819,10.736 -13.265,23.302 -9.1044,31.352 7.4679,14.449 30.666,1.5441 30.728,-12.317 -7.1367,-2.7646 -9.6655,9.6284 -17.071,4.4788 10.746,-13.397 32.546,-17.466 44.384,-32.472 z m -330.04,-29.113 c -6.0966,3.6884 -6.4937,11.067 -15.933,13.437 -10.468,16.6 -17.465,41.82 -6.8283,60.465 16.966,-11.485 9.1921,-36.063 26.175,-48.148 14.244,-16.446 46.145,23.475 62.593,-4.4789 -6.6007,-2.6873 -10.602,3.6369 -14.795,4.4789 -0.4848,-2.1353 -3.2514,-2.0267 -2.2761,-5.5986 3.9456,-0.49713 11.135,0.12991 13.657,-6.7183 -26.56,11.094 -36.302,-29.341 -62.593,-13.437 z m -1.1381,49.268 c 1.6047,-8.0832 16.02,-14.39 11.381,-21.275 -6.1296,4.873 -17.014,14.934 -11.381,21.275 z m 177.54,29.113 c 4.8208,0.26425 6.7407,-2.3245 7.9664,-5.5986 -2.1703,-0.47699 -2.0599,-3.199 -5.6903,-2.2394 -2.4639,3.2506 -1.5227,2.9045 -2.2761,7.838 z"
           id="path14806" />
        <path
           d="m 188.92,104.26 c -11.523,-14.317 -5.2897,-36.803 3.4142,-54.866 6.6633,-13.827 17.989,-31.902 31.866,-31.352 1.3236,4.9156 -3.6588,10.617 -9.1044,12.317 -14.026,21.368 -27.724,42.633 -26.175,73.901 z"
           id="path14808" />
        <path
           d="m 234.44,22.524 c -0.60771,5.3746 -2.4969,9.4874 -7.9664,10.078 -12.487,21.886 -27.584,40.768 -27.313,64.944 0.0637,5.7128 7.1698,16.022 -1.1381,21.275 -13.466,-22.92 -2.5322,-57.936 12.519,-78.38 6.3674,-8.6498 15.8,-17.016 23.899,-17.916 z"
           id="path14810" />
        <path
           d="m 285.65,54.996 c -2.6016,6.6063 -10.414,13.208 -17.071,19.035 -1.1608,1.4713 -1.1153,4.1273 -2.2761,5.5986 -10.962,5.0645 -13.514,23.791 -25.037,24.634 4.3599,-20.426 25.676,-33.65 37.556,-50.387 2.8053,-0.1478 5.4832,-0.16908 6.8283,1.1197 z"
           id="path14812" />
        <path
           d="m 294.76,58.355 c 2.2477,0.77373 3.0341,2.9863 3.4142,5.5986 -9.7725,6.4339 -15.502,16.847 -25.037,23.514 -0.87176,8.9264 -7.7444,18.463 -13.657,15.676 4.3713,-17.755 20.487,-33.562 35.28,-44.789 z"
           id="path14814" />
        <path
           d="m 307.27,67.313 c -4.633,7.0117 -10.911,12.406 -18.209,16.796 -3.9923,4.6569 -5.7768,11.485 -12.519,13.437 1.36,-14.396 16.468,-24.811 30.728,-30.232 z"
           id="path14816" />
        <path
           d="m 323.21,149.05 c 0.066,4.7868 4.5636,5.2134 7.9664,6.7183 8.6538,37.343 2.8451,75.834 -20.485,98.535 -29.905,15.683 -68.587,12.246 -91.044,-4.4789 8.0984,-9.4795 16.655,-19.641 18.209,-32.472 -0.3346,-2.2831 -3.0796,-2.1958 -3.4142,-4.4789 -10.453,6.9042 -8.0028,22.665 -20.485,29.113 -8.4114,-12.119 -4.0754,-21.837 -6.8283,-34.711 -1.2769,-5.9726 -5.9554,-11.386 -2.2761,-19.035 12.455,4.0948 18.455,18.679 30.728,23.514 14.069,5.5426 24.768,0.48596 38.694,-8.9577 -0.0706,-6.1674 4.6012,-8.0228 5.6903,-14.556 1.0675,-6.4003 -3.0773,-12.672 -2.2761,-19.035 0.73862,-5.8684 8.1417,-13.825 13.657,-22.394 4.8265,-7.4999 8.3158,-17.148 12.519,-22.394 4.7218,-5.8931 12.961,-8.7204 17.071,-13.437 -3.2059,-16.031 12.352,-50.842 34.142,-42.549 12.829,4.8831 12.573,27.787 9.1044,38.07 -6.2548,18.545 -12.76,34.958 -30.728,41.43 -4.4076,-1.0357 -8.12,-3.6021 -10.242,1.1197 z m 1.1381,-35.831 c 2.8645,1.6605 3.3812,5.6311 9.1044,4.4789 4.7696,-3.1453 6.5984,-9.1839 12.519,-11.197 7.213,9.6285 -7.1253,14.638 -11.381,20.155 -1.5056,-0.39078 -5.713,-1.8061 -9.1044,-3.3592 -4.1436,7.0777 3.9912,10.719 9.1044,12.317 12.144,-7.7092 23.661,-20 18.209,-34.711 -8.1086,-4.3736 -14.78,3.3827 -20.485,7.838 -1.7162,-13.482 7.7831,-24.772 18.209,-32.472 -2.3467,-0.30456 -0.27084,-4.9581 -3.4142,-4.4789 -14.048,9.9386 -21.966,19.206 -22.761,41.43 z m -68.283,133.25 c 3.223,5.4642 11.154,3.966 12.519,-4.4789 -3.3152,-3.7018 -10.305,-1.2698 -12.519,4.4789 z"
           fill="#ffffff"
           id="path14818" />
        <path
           d="m 347.11,71.792 c 3.1433,-0.47924 1.0675,4.1743 3.4142,4.4789 -10.426,7.7003 -19.925,18.989 -18.209,32.472 5.705,-4.4553 12.376,-12.212 20.485,-7.838 5.4524,14.711 -6.0647,27.002 -18.209,34.711 -5.1133,-1.5978 -13.248,-5.2392 -9.1044,-12.317 3.3914,1.553 7.5988,2.9684 9.1044,3.3592 4.2552,-5.5168 18.594,-10.526 11.381,-20.155 -5.9202,2.0132 -7.749,8.0519 -12.519,11.197 -5.7233,1.1522 -6.24,-2.8183 -9.1044,-4.4789 0.7955,-22.223 8.713,-31.491 22.761,-41.43 z"
           id="path14820" />
        <path
           d="m 312.97,74.031 c 1.0129,0.49603 2.036,0.98311 2.2761,2.2394 -1.4806,4.8876 -4.8606,7.9074 -10.242,8.9577 -5.8064,6.3342 -13.125,16.806 -21.623,16.796 3.0193,-11.651 17.337,-21.71 29.589,-27.993 z"
           id="path14822" />
        <path
           d="m 153.64,88.587 c 17.784,9.0014 26.486,26.942 38.694,41.43 -2.5709,0.62704 1.3793,1.7468 -1.138,3.3592 -14.647,-8.3912 -28.992,-26.69 -37.556,-44.789 z"
           id="path14824" />
        <path
           d="m 137.7,94.186 c 17.284,12.567 34.381,25.573 45.522,41.43 -3.9992,4.1553 -11.145,-2.3772 -14.795,-5.5986 -11.089,-9.7897 -25.579,-25.544 -30.728,-35.831 z"
           id="path14826" />
        <path
           d="m 130.88,103.14 h 3.4142 c 7.6409,14.537 29.159,21.278 34.142,34.711 -17.729,-6.4451 -29.896,-18.361 -37.556,-34.711 z"
           id="path14828" />
        <g
           fill="#ffffff"
           id="g14834">
          <path
             d="m 265.17,196.08 c -28.647,21.683 -61.503,-20.292 -42.108,-43.669 18.844,-15.623 55.672,13.273 42.108,43.669 z m -33.004,-5.5986 c 4.0082,2.1599 6.8955,4.377 10.242,4.4789 2.2158,-4.4867 0.47685,-10.778 -9.1044,-11.197 -1.3099,1.3235 -1.2883,3.9582 -1.1381,6.7183 z"
             id="path14830" />
          <path
             d="m 179.81,178.16 c 3.9878,8.7607 12.033,12.423 12.519,22.394 1.3133,26.934 -41.506,20.979 -50.074,-1.1197 -0.0375,-0.0974 -2.3068,-10.646 -2.2761,-11.197 0.27199,-4.826 4.2677,-7.0632 5.6903,-13.437 13.942,-3.4487 21.044,-1.9573 34.142,3.3592 z m 4.5522,30.232 c 1.4795,-8.5468 -4.6273,-9.6307 -10.242,-11.197 -3.7112,6.4541 3.8261,14.553 10.242,11.197 z"
             id="path14832" />
        </g>
        <path
           d="m 233.3,183.76 c 9.5813,0.41876 11.32,6.7105 9.1044,11.197 -3.347,-0.1019 -6.2342,-2.3189 -10.242,-4.4789 -0.15022,-2.7601 -0.17184,-5.3948 1.1381,-6.7183 z"
           id="path14836" />
        <path
           d="m 628.21,188.24 c 1.3042,0.39638 2.885,1.9718 1.1381,2.2394 -6.224,12.985 -14.473,31.786 -21.623,47.028 -1.9996,4.2628 -6.4437,7.2938 -7.9664,11.197 -0.57471,1.4735 0.66925,4.0915 0,5.5986 -1.5967,3.5943 -5.5127,6.4451 -6.8283,10.078 -7.8002,21.537 -18.594,42.962 -28.451,64.944 -3.2913,7.3386 -9.4277,13.344 -12.519,20.155 -2.8463,6.2738 -2.7518,13.246 -5.6903,19.035 -4.9904,9.83 -11.865,15.674 -12.519,25.754 -1.1574,0.72668 -1.1767,2.5742 -3.4141,2.2394 -0.29138,4.3568 -1.3429,6.4686 -3.4142,11.197 -35.367,14.42 -74.233,7.1527 -111.53,-2.2394 -34.831,-8.7708 -62.374,-19.567 -92.182,-13.437 -13.602,2.7971 -25.621,11.632 -39.832,20.155 11.684,-29.655 30.378,-51.097 42.108,-82.859 -3.7283,-2.5731 -5.3762,4.6424 -9.1044,5.5986 -15.885,31.139 -33.268,56.579 -44.384,82.859 -31.745,-22.189 -65.693,-22.7 -99.011,-25.754 -41.113,3.9873 -108.38,16.789 -147.95,1.1197 13.715,-20.471 35.874,-32.634 48.936,-53.746 18.877,-11.833 29.653,-37.841 44.384,-53.746 17.957,13.118 40.655,14.061 54.627,-4.4789 5.6072,-21.425 -23.634,-13.786 -37.556,-21.275 0.21053,-11.724 10.776,-19.925 12.519,-33.592 10.862,0.9081 14.854,6.5179 25.037,5.5986 33.8,28.253 72.06,46.113 109.25,40.31 7.6477,-1.1925 15.503,-1.281 21.623,-4.4789 19.075,-9.9677 31.296,-32.456 39.832,-50.387 12.001,-0.44452 19.015,3.3009 28.451,6.7183 -0.69879,12.589 -12.487,17.857 -13.657,30.232 -8.9371,6.1372 -19.757,10.421 -29.589,15.676 -3.5985,1.3896 -0.21393,3.2561 -3.4142,5.5986 -18.982,5.3612 -55.624,41.091 -60.317,61.584 -1.1244,4.9077 -1.0561,9.316 2.2761,11.197 17.764,10.029 39.187,-29.94 55.765,-34.711 1.4283,10.502 11.993,21.352 22.761,16.796 13.575,9.7684 23.228,-0.66061 35.28,8.9577 13.736,-3.9324 26.036,-14.31 25.037,-29.113 2.8361,-1.6885 5.5833,-3.4644 9.1045,-4.4789 18.491,-13.172 25.697,-25.855 12.519,-42.549 -9.7156,-12.307 -24.049,-18.382 -36.418,-22.394 14.899,-12.421 52.336,7.5323 59.179,29.113 1.6877,5.3254 -4.0674,9.8714 3.4142,15.676 31.066,-18.351 52.283,-49.744 67.145,-80.62 7.452,-7.5525 20.404,-2.843 30.728,0 23.964,-4.2236 54.896,-4.4688 76.25,-16.796 z"
           fill="#ffffff"
           id="path14838" />
        <path
           d="m 174.12,197.2 c 5.6152,1.5665 11.722,2.6504 10.242,11.197 -6.4164,3.3558 -13.954,-4.7431 -10.242,-11.197 z"
           id="path14840" />
        <g
           fill="#ffffff"
           id="g14848">
          <path
             d="m 628.21,206.16 c 3.6281,16.143 -0.45178,59.384 15.933,80.62 -1.5046,9.5288 -8.7062,20.92 -13.657,30.232 -16.787,31.584 -28.561,51.124 -42.108,79.5 -3.3686,7.0542 -5.4751,13.505 -9.1044,20.155 -2.2123,4.0545 -2.556,6.9232 -4.5522,13.437 -0.75226,2.4567 -4.5864,3.517 -5.6903,5.5986 -0.78186,1.4724 0.63165,4.0455 0,5.5986 -1.847,4.546 -8.376,8.8492 -11.381,14.556 -4.9756,9.4526 -4.6068,19.62 -12.519,26.873 -2.7905,-3.4745 0.89563,-10.697 4.5522,-14.556 7.7706,-28.386 26.694,-50.171 37.556,-75.021 1.5261,-3.4902 0.77386,-7.8011 2.2761,-11.197 4.4396,-10.037 10.887,-20.091 14.795,-31.352 -13.45,8.9062 -14.44,28.745 -21.623,42.549 -9.0544,17.402 -18.835,32.008 -27.313,49.268 -4.757,9.6822 -8.5525,18.528 -14.795,25.754 2.3899,-12.848 3.6099,-17.369 10.242,-25.754 17.641,-37.816 33.284,-65.895 50.074,-98.535 1.4454,-2.8094 -0.54742,-7.8593 4.5522,-8.9577 -0.41089,-8.5087 6.9319,-8.287 3.4142,-14.556 -25.615,41.256 -47.823,89.583 -68.283,129.89 -3.0306,-13.982 10.835,-32.614 19.347,-51.507 7.7673,-17.24 20.383,-34.383 26.175,-49.268 1.5352,-3.9425 1.0425,-9.0697 2.2761,-11.197 6.0351,-10.409 12.628,-23.505 15.933,-35.831 -10.17,10.765 -14.713,27.942 -21.623,41.43 -6.6201,12.923 -12.719,24.338 -20.485,35.831 -7.1937,22.436 -17.616,32.869 -23.899,54.866 -3.9058,-7.108 -6.6929,-18.658 -4.5522,-26.873 1.8198,-6.9848 9.2422,-14.881 12.519,-23.514 1.0982,-2.8922 0.0729,-6.248 1.1381,-8.9578 10.767,-27.41 26.686,-53.043 38.694,-78.38 6.4755,-22.888 13.627,-24.791 19.347,-45.908 11.985,-15.013 13.49,-26.625 22.761,-44.789 z m -26.175,72.782 c -8.8085,8.2109 -10.099,20.241 -14.795,30.232 -8.6697,18.448 -20.181,38.767 -27.313,55.986 -1.7299,4.1754 -6.0647,7.0262 -7.9664,11.197 -5.7961,12.711 -9.8613,26.225 -12.519,38.07 28.21,-47.785 52.007,-109.2 75.112,-153.4 -8.763,1.4556 -9.917,10.398 -12.519,17.916 z"
             id="path14842" />
          <path
             d="m 199.16,214 c 5.5799,9.0664 2.11,15.164 4.5522,26.873 -6.2616,0.7099 -13.226,-6.9758 -19.347,-10.078 2.9214,-7.576 13.547,-7.5715 14.795,-16.796 z"
             id="path14844" />
          <path
             d="m 402.87,215.12 c -4.4532,15.392 -20.61,27.976 -36.418,35.831 3.7397,-13.607 17.119,-36.738 36.418,-35.831 z"
             id="path14846" />
        </g>
        <path
           d="m 268.58,241.99 c -1.3645,8.4449 -9.2956,9.9431 -12.519,4.4789 2.2135,-5.7486 9.2035,-8.1807 12.519,-4.4789 z"
           id="path14850" />
        <g
           fill="#ffffff"
           id="g14856">
          <path
             d="m 383.52,317.01 c 7.4053,5.1496 9.9341,-7.2434 17.071,-4.4788 -0.0614,13.861 -23.26,26.766 -30.728,12.317 -4.1607,-8.0496 9.4026,-20.616 9.1044,-31.352 -14.663,6.5134 -15.177,23.233 -15.933,34.711 -22.034,-3.6973 -11.095,-23.651 -1.1381,-36.951 -11.845,0.66959 -19.639,15.01 -18.209,32.472 -20.098,-0.33929 -9.9546,-29.987 3.4142,-39.19 -10.641,-5.3657 -13.396,8.4303 -18.209,14.556 -3.0944,3.9392 -9.1511,9.6923 -13.657,13.437 -12.324,10.241 -25.701,23.557 -39.832,29.113 2.8963,-4.9872 9.2524,-6.5716 12.519,-11.197 -0.6749,-4.1877 -3.9787,-5.79 -5.6903,-8.9577 3.4711,-4.8663 11.606,-16.497 18.209,-21.275 4.7218,-3.4163 13.182,-9.6016 21.623,-15.676 10.884,-7.8336 23.147,-13.792 36.418,-21.275 6.5404,-3.6872 18.296,-12.881 26.175,-14.556 13.734,-2.9191 31.106,9.465 42.108,21.275 2.3353,2.5059 1.1722,9.6867 1.1381,14.556 -11.838,15.005 -33.639,19.074 -44.384,32.472 z"
             id="path14852" />
          <path
             d="m 160.47,268.86 c -2.5219,6.8482 -9.711,6.2212 -13.657,6.7183 -0.97531,3.5719 1.7913,3.4633 2.2761,5.5986 4.1926,-0.84201 8.194,-7.1662 14.795,-4.4789 -16.448,27.954 -48.349,-11.968 -62.593,4.4789 -16.983,12.085 -9.2092,36.663 -26.175,48.148 -10.636,-18.644 -3.6395,-43.865 6.8283,-60.465 9.439,-2.3693 9.8362,-9.7483 15.933,-13.437 26.291,-15.904 36.033,24.531 62.593,13.437 z"
             id="path14854" />
        </g>
        <path
           d="m 614.55,261.02 c -23.105,44.198 -46.902,105.62 -75.112,153.4 2.6574,-11.846 6.7225,-25.359 12.519,-38.07 1.9017,-4.1709 6.2365,-7.0217 7.9664,-11.197 7.1322,-17.219 18.644,-37.537 27.313,-55.986 4.6956,-9.9912 5.9861,-22.022 14.795,-30.232 2.6016,-7.5178 3.7556,-16.46 12.519,-17.916 z"
           id="path14858" />
        <g
           fill="#ffffff"
           id="g14864">
          <path
             d="m 108.12,283.42 c 4.6398,6.8851 -9.7759,13.191 -11.381,21.275 -5.6334,-6.3409 5.251,-16.402 11.381,-21.275 z"
             id="path14860" />
          <path
             d="m 276.55,325.97 c 3.6304,-0.95956 3.52,1.7624 5.6903,2.2394 -1.2257,3.2741 -3.1456,5.8628 -7.9664,5.5986 0.75339,-4.9335 -0.18778,-4.5875 2.2761,-7.838 z"
             id="path14862" />
        </g>
        <path
           d="m 472.29,435.7 c -7.7251,5.5101 -20.381,3.5002 -29.589,3.3591 -51.704,-0.79388 -93.466,-28.117 -143.4,-5.5986 6.2354,-9.6811 20.379,-12.402 28.451,-13.437 36.764,-4.7129 72.928,9.4908 108.12,11.197 6.6087,0.32025 11.989,2.2417 18.209,3.3592 5.77,1.0368 13.267,-4.284 18.209,1.1197 z"
           id="path14866" />
        <path
           d="m 421.08,458.09 c -40.058,-5.7587 -80.011,-14.512 -122.91,-4.4789 8.8017,-12.255 23.674,-7.9936 33.004,-12.317 28.096,1.6494 64.006,1.6829 89.906,16.796 z"
           id="path14868" />
        <path
           d="m 324.35,76.27 c -2.7666,14.787 -14.083,16.589 -23.899,25.754 0.65213,2.7176 7.3621,-0.52515 6.8283,3.3592 -12.012,16.913 -21.367,32.046 -34.142,49.268 -6.4243,-4.4117 -17.201,-15.601 -29.589,-17.916 -22.058,-4.1228 -40.739,15.534 -35.28,36.951 -2.1202,3.5126 -8.5184,2.8161 -11.381,5.5986 -14.289,-18.081 -48.728,-27.182 -64.869,-6.7183 -8.9041,-17.6 -13.934,-32.734 -6.8283,-45.908 10.175,6.5123 20.841,22.502 33.004,14.556 -14.631,-9.119 -26.867,-20.594 -39.832,-31.352 -2.5663,-37.304 21.633,-47.766 36.418,-73.901 3.2161,0.92488 2.9487,-1.5777 5.6903,-1.1197 3.9468,-1.3907 2.0963,-3.2561 3.4142,-5.5986 28.153,-19.936 59.842,-19.81 96.735,-14.556 11.818,1.6829 23.156,6.5851 33.004,13.437 11.509,17.288 18.409,32.504 30.728,48.148 z M 210.54,40.439 c -15.051,20.444 -25.984,55.461 -12.519,78.38 8.3078,-5.2526 1.2018,-15.562 1.1381,-21.275 -0.27086,-24.176 14.827,-43.058 27.313,-64.944 5.4695,-0.59009 7.3587,-4.7028 7.9664,-10.078 -8.0995,0.89913 -17.532,9.2657 -23.899,17.916 z m 4.5522,-10.078 c 5.4456,-1.6997 10.428,-7.4013 9.1044,-12.317 -13.876,-0.54978 -25.202,17.525 -31.866,31.352 -8.7038,18.063 -14.937,40.55 -3.4142,54.866 -1.5489,-31.268 12.149,-52.534 26.175,-73.901 z m 63.731,23.514 c -11.88,16.738 -33.196,29.961 -37.556,50.387 11.523,-0.84315 14.076,-19.569 25.037,-24.634 1.1608,-1.4713 1.1153,-4.1273 2.2761,-5.5986 6.6565,-5.827 14.469,-12.429 17.071,-19.035 -1.3452,-1.2888 -4.023,-1.2675 -6.8283,-1.1197 z m -19.347,49.268 c 5.9122,2.787 12.785,-6.7497 13.657,-15.676 9.5358,-6.6668 15.265,-17.08 25.037,-23.514 -0.38013,-2.6123 -1.1665,-4.8249 -3.4142,-5.5986 -14.792,11.226 -30.908,27.033 -35.28,44.789 z m 17.071,-5.5986 c 6.7418,-1.9517 8.5263,-8.7797 12.519,-13.437 7.2983,-4.3893 13.576,-9.7841 18.209,-16.796 -14.26,5.4217 -29.368,15.836 -30.728,30.232 z m 6.8283,4.4789 c 8.4979,0.0101 15.817,-10.462 21.623,-16.796 5.3819,-1.0503 8.7619,-4.0702 10.242,-8.9577 -0.24014,-1.2563 -1.2632,-1.7434 -2.2761,-2.2394 -12.252,6.2827 -26.57,16.342 -29.589,27.993 z m -92.182,31.352 c 2.5174,-1.6124 -1.4328,-2.7321 1.138,-3.3592 -12.208,-14.488 -20.91,-32.428 -38.694,-41.43 8.5639,18.099 22.909,36.398 37.556,44.789 z m -22.761,-3.3592 c 3.6498,3.2214 10.796,9.7539 14.795,5.5986 -11.142,-15.856 -28.239,-28.863 -45.522,-41.43 5.1486,10.287 19.638,26.041 30.728,35.831 z m 0,7.838 c -4.9824,-13.433 -26.501,-20.174 -34.142,-34.711 h -3.4142 c 7.6603,16.35 19.827,28.266 37.556,34.711 z"
           fill="#ffffff"
           id="path14870" />
      </g>
      <text
         xml:space="preserve"
         style="font-style:normal;font-variant:normal;font-weight:800;font-stretch:normal;font-size:11.4635px;line-height:1.25;font-family:Lato;-inkscape-font-specification:'Lato, Ultra-Bold';font-variant-ligatures:normal;font-variant-caps:normal;font-variant-numeric:normal;font-variant-east-asian:normal;text-align:center;text-anchor:middle;stroke:#ffffff;stroke-width:0.238823"
         x="209.06393"
         y="153.58452"
         id="text18092"><tspan
           sodipodi:role="line"
           id="tspan18090"
           style="font-style:normal;font-variant:normal;font-weight:800;font-stretch:normal;font-size:11.4635px;font-family:Lato;-inkscape-font-specification:'Lato, Ultra-Bold';font-variant-ligatures:normal;font-variant-caps:normal;font-variant-numeric:normal;font-variant-east-asian:normal;stroke:#ffffff;stroke-width:0.238823"
           x="209.06393"
           y="153.58452">Learning mode</tspan></text>
    </g>
  </g>
</svg>
